<svg width="660" height="995" viewBox="0 0 660 995" fill="none" xmlns="http://www.w3.org/2000/svg">
<path d="M458.076 916.151C711.064 916.151 916.151 711.064 916.151 458.076C916.151 205.087 711.064 0 458.076 0C205.087 0 0 205.087 0 458.076C0 711.064 205.087 916.151 458.076 916.151Z" fill="#CAF0C1"/>
<path d="M307.844 995C307.844 995 234.83 292.013 298.75 109.543C298.75 109.543 391.488 641.721 351.258 995H307.844Z" fill="#49985F"/>
<path d="M306.76 302.828L333.984 971.197" stroke="black" stroke-width="4.32" stroke-miterlimit="10" stroke-linecap="round" stroke-linejoin="round"/>
<path d="M236.087 995C236.087 995 121.077 549.265 183.769 296.283C183.769 296.283 269.448 581.159 289.296 995H236.087Z" fill="#49985F"/>
<path d="M195.232 450.717L270.39 981.301" stroke="black" stroke-width="4.32" stroke-miterlimit="10" stroke-linecap="round" stroke-linejoin="round"/>
<path d="M581.311 119.591C690.682 79.6849 755.664 551.155 674.37 551.924C633.552 552.31 590.845 451.993 569.21 347.335C550.317 255.932 562.694 230.878 587.605 239.927C587.605 239.927 551.28 130.546 581.311 119.591Z" fill="#387C57"/>
<path d="M643.039 323.383C643.039 323.383 763.403 677.115 588.97 921.659" stroke="black" stroke-width="4.32" stroke-miterlimit="10" stroke-linecap="round" stroke-linejoin="round"/>
<path d="M774.194 480.492C774.194 480.492 812.154 660.988 654.926 995" stroke="black" stroke-width="4.32" stroke-miterlimit="10" stroke-linecap="round" stroke-linejoin="round"/>
<path d="M853.432 964.002C828.285 953.252 792.978 986.269 783.102 979.643C773.227 973.016 793.079 957.375 773.328 940.333C761.059 929.749 728.338 942.227 729.435 925.185C730.532 908.144 770.909 871.072 731.934 854.55C686.382 835.238 621.461 929.66 608.294 929.66C595.126 929.66 609.242 891.078 572.52 903.41C519.191 921.318 491.176 994.294 491.176 994.294L844.623 995C844.623 995 870.263 971.197 853.432 964.002Z" fill="#387C57"/>
<path d="M55.5237 111.197C55.5237 111.197 61.8676 94.375 75.0479 90.9708C88.2304 87.5688 103.154 114.493 103.154 114.493C103.154 114.493 103.914 93.8307 117.354 88.7201C130.795 83.6096 143.2 103.888 143.2 103.888C143.2 103.888 106.154 90.1673 104.18 133.184C104.18 133.184 78.9856 96.4227 55.5237 111.197Z" fill="#120E00"/>
<path d="M193.885 184.976C193.885 184.976 198.228 175.494 205.991 174.053C213.757 172.61 221.314 188.789 221.314 188.789C221.314 188.789 222.58 176.863 230.564 174.442C238.547 172.021 244.915 184.253 244.915 184.253C244.915 184.253 224.023 174.831 221.161 199.647C221.165 199.647 208.054 177.364 193.885 184.976Z" fill="#120E00"/>
<path d="M361.477 84.8105C361.477 84.8105 369.413 74.8638 377.893 74.9286C386.375 74.9934 387.434 91.796 387.434 91.796C387.434 91.796 396.747 77.1101 404.845 80.3091C412.943 83.5081 411.69 92.1502 411.69 92.1502C411.69 92.1502 394.006 85.262 386.107 102.868C386.107 102.868 377.027 77.4644 361.477 84.8105Z" fill="#120E00"/>
<path d="M88.2542 957.857C120.342 957.857 146.354 953.17 146.354 947.389C146.354 941.608 120.342 936.922 88.2542 936.922C56.1666 936.922 30.1545 941.608 30.1545 947.389C30.1545 953.17 56.1666 957.857 88.2542 957.857Z" fill="#FA920F"/>
<path d="M146.347 947.394L142.092 995H34.416L30.1609 947.394H146.347Z" fill="#FA920F"/>
<path d="M99.1621 795.656C99.1621 795.656 70.8769 895.469 89.9669 947.389" stroke="black" stroke-width="4.32" stroke-miterlimit="10" stroke-linecap="round" stroke-linejoin="round"/>
<path d="M153.478 735.66C143.991 716.686 118.686 744.313 118.686 744.313C118.686 744.313 126.009 730.467 118.686 724.121C111.364 717.775 99.1622 739.697 99.1622 739.697C99.1622 739.697 104.335 718.351 89.967 719.505C75.5965 720.658 66.9846 798.412 96.0085 807.961C123.479 817.001 161.554 751.812 153.478 735.66Z" fill="#F74529"/>
<path d="M91.2565 916.251C91.2565 916.251 106.415 887.395 122.516 885.767C142.911 883.704 107.88 908.922 107.88 908.922C107.88 908.922 127.659 905.161 123.559 911.382C119.46 917.603 91.2565 916.251 91.2565 916.251Z" fill="#387C57"/>
<path d="M79.1064 878.407C79.1064 878.407 78.1582 844.336 71.1447 839.579C64.1312 834.821 65.9175 853.658 70.8077 858.894C70.8077 858.894 55.3378 832.602 46.5034 835.592C37.6668 838.581 79.1064 878.407 79.1064 878.407Z" fill="#387C57"/>
<path d="M88.2541 957.857C116.834 957.857 140.003 953.683 140.003 948.534C140.003 943.385 116.834 939.211 88.2541 939.211C59.6738 939.211 36.5048 943.385 36.5048 948.534C36.5048 953.683 59.6738 957.857 88.2541 957.857Z" fill="#110F00"/>
<path d="M618.29 434.407C618.29 434.407 598.295 429.38 588.882 442.694C580.786 454.145 581.879 462.465 589.005 462.363C596.133 462.262 614.305 441.746 618.29 434.407Z" fill="#49985F"/>
<path d="M537.394 301.813C537.394 301.813 518.77 272.899 506.86 280.427C498.708 285.578 525.747 297.543 537.394 301.813Z" fill="#387C57"/>
<path d="M533.517 211.676C533.517 211.676 513.478 195.511 517.688 182.233C521.9 168.958 533.517 211.676 533.517 211.676Z" fill="#387C57"/>
</svg>
