<svg width="742" height="667" viewBox="0 0 742 667" fill="none" xmlns="http://www.w3.org/2000/svg">
<ellipse opacity="0.4" cx="408.5" cy="554.5" rx="313.5" ry="75.5" fill="#387C57"/>
<path d="M458.529 573.507C458.529 573.507 332.219 586.433 300.236 497.15" stroke="#161616" stroke-width="34.7189" stroke-miterlimit="10" stroke-linecap="round" stroke-linejoin="round"/>
<path d="M637.651 442.325C637.651 442.325 513.385 468.388 472.24 382.938" stroke="#161616" stroke-width="34.7189" stroke-miterlimit="10" stroke-linecap="round" stroke-linejoin="round"/>
<path d="M669.11 293.35L705.683 510.523C684.199 514.141 662.978 513.207 644.716 510.561C613.268 506.027 590.614 496.469 590.614 496.469C590.614 496.469 586.468 435.513 608.765 415.178C608.765 415.178 561.641 407.752 573.942 375.606L633.95 346.66C635.12 303.349 669.11 293.35 669.11 293.35Z" fill="#F74529"/>
<path d="M608.762 415.179L650.962 382.053" stroke="#161616" stroke-width="3.47189" stroke-miterlimit="10" stroke-linecap="round" stroke-linejoin="round"/>
<path d="M685.296 290.625L721.869 507.798C688.719 517.117 662.978 513.207 644.716 510.562C644.716 510.562 631.231 446.912 677.21 450.72C677.21 450.72 645.327 414.231 633.946 346.664C635.113 287.934 685.296 290.625 685.296 290.625Z" fill="white"/>
<path d="M619.764 408.356C619.764 408.356 605.033 373.8 606.47 357.524" stroke="white" stroke-width="3.47189" stroke-miterlimit="10" stroke-linecap="round" stroke-linejoin="round"/>
<path d="M633.631 399.934C633.631 399.934 618.899 365.378 620.337 349.102" stroke="white" stroke-width="3.47189" stroke-miterlimit="10" stroke-linecap="round" stroke-linejoin="round"/>
<path d="M669.818 404.891C674.106 430.358 680.758 453.286 688.431 471.031C690.649 476.145 692.948 480.822 695.295 484.995C703.988 500.524 713.404 509.222 721.862 507.798C730.319 506.375 736.367 495.07 739.516 477.547C740.367 472.836 740.988 467.666 741.426 462.104C742.863 442.825 741.638 418.984 737.35 393.517C727.25 333.551 703.936 287.489 685.292 290.631C666.645 293.77 659.718 344.925 669.818 404.891Z" fill="#161616"/>
<path d="M666.568 474.711L669.044 489.414L739.513 477.547C740.363 472.836 740.985 467.666 741.422 462.104L666.568 474.711Z" fill="white"/>
<path d="M537.157 194.238C600.391 294.607 570.279 427.226 469.917 490.452C460.144 496.608 450.072 501.882 439.785 506.284C358.359 541.173 263.663 521.987 202.183 459.275C191.632 448.519 182.063 436.485 173.703 423.212C141.522 372.13 133.519 312.685 146.653 258.287C159.319 205.82 191.656 158.047 240.943 126.998C318.31 78.2559 414.853 84.9809 483.996 136.604C504.542 151.943 522.669 171.243 537.157 194.238Z" fill="#9AC4DC"/>
<path d="M439.785 506.284C358.359 541.173 263.663 521.987 202.183 459.275C227.809 448.953 248.175 474.041 268.482 476.245C295.837 479.221 346.165 432.083 389.758 444.359C412.895 450.873 429.39 480.2 439.785 506.284Z" fill="#49965F"/>
<path d="M196.999 346.727C195.121 326.781 221.653 294.326 237.061 287.857C252.469 281.389 280.772 290.833 291.452 302.026C302.135 313.22 275.217 324.923 273.016 337.509C270.815 350.095 293.073 381.279 270.62 393.08C236.665 410.922 199.766 376.106 196.999 346.727Z" fill="#49965F"/>
<path d="M476.805 179.802C498.842 204.883 524.881 216.527 522.496 252.326C520.107 288.118 466.289 289.291 435.75 258.124C405.205 226.96 359.352 283.472 326.879 275.81C265.857 261.412 281.682 184.281 252.601 195.009C223.51 205.74 224.996 240.254 198.395 257.409C183.962 266.72 162.905 263.328 146.674 258.28C159.34 205.813 191.677 158.04 240.964 126.991C318.331 78.2491 414.874 84.9741 484.017 136.598C467.9 143.482 459.54 160.144 476.805 179.802Z" fill="#49965F"/>
<path d="M521.381 235.366C569.238 343.3 539.216 461.302 454.342 498.934C446.079 502.597 437.601 505.368 428.987 507.274C360.782 522.397 283.862 483.873 235.933 411.672C227.708 399.288 220.337 385.914 214.011 371.644C189.656 316.709 185.476 259.162 198.43 210.931C210.925 164.411 239.37 126.557 281.05 108.076C346.481 79.0684 425.418 106.291 480.076 169.737C496.321 188.589 510.42 210.639 521.381 235.366Z" stroke="#161616" stroke-width="3.47189" stroke-miterlimit="10" stroke-linecap="round" stroke-linejoin="round"/>
<path d="M146.674 359.465L308.02 323.177" stroke="#161616" stroke-width="3.47189" stroke-miterlimit="10" stroke-linecap="round" stroke-linejoin="round"/>
<path d="M567.453 274.046L434.014 303.501" stroke="#161616" stroke-width="3.47189" stroke-miterlimit="10" stroke-linecap="round" stroke-linejoin="round"/>
<path d="M467.872 256.534C516.211 365.565 501.05 478.044 434.011 507.767" stroke="#161616" stroke-width="3.47189" stroke-miterlimit="10" stroke-linecap="round" stroke-linejoin="round"/>
<path d="M293.518 103.767C317.411 97.7819 363.351 108.281 382.752 131.595" stroke="#161616" stroke-width="3.47189" stroke-miterlimit="10" stroke-linecap="round" stroke-linejoin="round"/>
<path d="M394.876 198.775C404.149 223.547 426.307 238.133 444.371 231.37C451.995 228.516 457.665 222.339 460.974 214.239C465.553 203.195 465.674 188.596 460.314 174.274C454.759 159.443 444.579 148.256 433.431 143.128C425.953 139.68 418.037 138.951 410.791 141.663C392.727 148.43 385.602 174.007 394.876 198.775Z" fill="white"/>
<path d="M330.559 223.565C339.832 248.337 361.994 262.922 380.054 256.159C387.679 253.305 393.352 247.125 396.657 239.028C401.236 227.984 401.358 213.385 395.997 199.063C390.442 184.232 380.263 173.045 369.114 167.917C361.636 164.47 353.72 163.737 346.474 166.452C328.406 173.215 321.286 198.793 330.559 223.565Z" fill="white"/>
<path d="M342.634 195.79C342.634 195.79 354.484 222.468 366.472 218.77C378.461 215.072 376.964 190.682 376.964 190.682C376.964 190.682 393.914 224.349 372.347 236.008C351.658 247.194 339.846 203.605 342.634 195.79Z" fill="#120E00"/>
<path d="M407.69 169.553C407.69 169.553 419.54 196.231 431.528 192.533C443.517 188.836 442.02 164.445 442.02 164.445C442.02 164.445 458.967 198.112 437.403 209.771C416.714 220.957 404.903 177.364 407.69 169.553Z" fill="#120E00"/>
<path d="M325.865 266.054C325.865 266.054 360.105 325.704 417.165 291.624" stroke="#161616" stroke-width="3.47189" stroke-miterlimit="10" stroke-linecap="round" stroke-linejoin="round"/>
<path d="M318.23 266.557C318.23 266.557 327.573 270.255 331.743 257.773" stroke="#161616" stroke-width="3.47189" stroke-miterlimit="10" stroke-linecap="round" stroke-linejoin="round"/>
<path d="M537.157 194.238C600.391 294.607 570.279 427.226 469.917 490.452C460.144 496.608 450.072 501.882 439.785 506.284C358.359 541.173 263.663 521.987 202.183 459.275C191.632 448.519 182.063 436.485 173.703 423.212C141.522 372.13 133.519 312.685 146.653 258.287C159.319 205.82 191.656 158.047 240.943 126.998C318.31 78.2559 414.853 84.9809 483.996 136.604C504.542 151.943 522.669 171.243 537.157 194.238Z" stroke="#161616" stroke-width="3.47189" stroke-miterlimit="10" stroke-linecap="round" stroke-linejoin="round"/>
<path d="M160.471 218.565C196.006 185.124 244.512 156.863 301.197 139.472C361.431 120.995 420.908 117.867 471.035 127.647" stroke="#161616" stroke-width="3.47189" stroke-miterlimit="10" stroke-linecap="round" stroke-linejoin="round"/>
<path d="M564.884 356.278C528.939 400.905 470.837 439.662 399.952 461.407C386.557 465.517 373.204 468.868 359.983 471.482C306.631 482.047 255.424 480.693 212.57 469.187" stroke="#161616" stroke-width="3.47189" stroke-miterlimit="10" stroke-linecap="round" stroke-linejoin="round"/>
<path d="M230.885 359.465C230.885 359.465 228.763 500.365 142.643 563.109" stroke="#161616" stroke-width="20.8313" stroke-miterlimit="10" stroke-linecap="round" stroke-linejoin="round"/>
<path d="M123.683 544.229C122.392 536.424 117.521 522.227 129.405 516.79C141.942 511.055 182.469 524.81 200.263 543.979C218.06 563.154 216.643 590.967 195.933 583.569C195.933 583.569 198.388 615.826 164.895 630.005C139.977 640.556 128.072 651.548 112.181 665.075C102.901 672.973 87.1104 647.986 101.283 630.436C101.283 630.436 80.0972 645.938 53.8219 640.459C33.5392 636.23 41.0592 620.18 41.0592 620.18C41.0592 620.18 8.14576 626.544 13.4716 601.008C13.4716 601.008 -3.78712 592.519 0.764526 580.812C6.43065 566.234 33.8968 577.795 46.4511 577.298C59.002 576.805 95.7033 532.136 123.683 544.229Z" fill="white"/>
<path d="M131.71 601.269C131.71 601.269 113.094 609.282 101.283 630.439" stroke="#161616" stroke-width="3.47189" stroke-miterlimit="10" stroke-linecap="round" stroke-linejoin="round"/>
<path d="M78.4203 600.116C78.4203 600.116 59.6825 619.551 41.0628 620.183" stroke="#161616" stroke-width="3.47189" stroke-miterlimit="10" stroke-linecap="round" stroke-linejoin="round"/>
<path d="M13.4717 601.008C13.4717 601.008 35.1363 602.917 46.6247 593.484" stroke="#161616" stroke-width="3.47189" stroke-miterlimit="10" stroke-linecap="round" stroke-linejoin="round"/>
<path d="M195.933 583.569C195.933 583.569 196.565 567.484 175.154 559.908" stroke="#161616" stroke-width="3.47189" stroke-miterlimit="10" stroke-linecap="round" stroke-linejoin="round"/>
<path d="M505.396 428.639L519.058 648.444C497.314 649.795 476.306 646.649 458.422 642.108C427.619 634.31 406.09 622.436 406.09 622.436C406.09 622.436 408.343 561.38 432.64 543.489C432.64 543.489 386.55 531.174 402.143 500.493L464.848 477.982C470.546 435.031 505.396 428.639 505.396 428.639Z" fill="#F74529"/>
<path d="M432.64 543.489L478.069 514.957" stroke="#161616" stroke-width="3.47189" stroke-miterlimit="10" stroke-linecap="round" stroke-linejoin="round"/>
<path d="M521.777 427.622L535.439 647.431C501.494 653.229 476.306 646.653 458.422 642.112C458.422 642.112 451.666 577.403 496.994 585.995C496.994 585.995 469.101 546.374 464.852 477.985C472.15 419.696 521.777 427.622 521.777 427.622Z" fill="white"/>
<path d="M444.295 537.855C444.295 537.855 433.258 501.948 436.389 485.912" stroke="white" stroke-width="3.47189" stroke-miterlimit="10" stroke-linecap="round" stroke-linejoin="round"/>
<path d="M458.967 530.932C458.967 530.932 447.93 495.025 451.061 478.989" stroke="white" stroke-width="3.47189" stroke-miterlimit="10" stroke-linecap="round" stroke-linejoin="round"/>
<path d="M494.436 539.642C496.036 565.418 500.255 588.915 506.028 607.369C507.698 612.684 509.497 617.579 511.393 621.975C518.416 638.327 526.87 647.965 535.432 647.431C543.994 646.899 551.191 636.289 556.152 619.19C557.489 614.594 558.648 609.518 559.666 604.032C563.11 585.006 564.387 561.168 562.783 535.393C559.009 474.701 540.64 426.452 521.77 427.625C502.9 428.799 490.662 478.947 494.436 539.642Z" fill="#161616"/>
<path d="M483.905 608.744L484.829 623.624L556.152 619.19C557.489 614.594 558.648 609.518 559.666 604.032L483.905 608.744Z" fill="white"/>
<path d="M288.73 120.318C288.73 120.318 307.686 45.8011 280.123 8.82203C252.56 -28.157 259.045 60.817 276.887 96.7719C276.887 96.7719 235.443 60.2164 210.005 75.2774C178.924 93.6784 200.402 138.834 215.789 116.881C235.232 89.1476 261.687 100.324 288.73 120.318Z" fill="#49965F"/>
</svg>
