<svg width="71" height="71" viewBox="0 0 71 71" fill="none" xmlns="http://www.w3.org/2000/svg">
<circle cx="35.5" cy="35.5" r="35.5" fill="#F3F3F3"/>
<path d="M39.2266 50.4065V39.2266C39.2266 37.1684 37.5582 35.5 35.5 35.5C33.4418 35.5 31.7734 37.1684 31.7734 39.2266V50.4065M33.6055 19.8484L22.4258 26.4476C21.2903 27.1179 20.5935 28.3383 20.5935 29.6569V46.6799C20.5935 48.7381 22.262 50.4065 24.3201 50.4065H46.6798C48.738 50.4065 50.4064 48.7381 50.4064 46.6799V29.6569C50.4064 28.3383 49.7097 27.1179 48.5742 26.4476L37.3944 19.8484C36.2255 19.1586 34.7744 19.1586 33.6055 19.8484Z" stroke="#387C57" stroke-width="3.72662" stroke-linecap="round" stroke-linejoin="round"/>
</svg>
