<svg width="580" height="856" viewBox="0 0 580 856" fill="none" xmlns="http://www.w3.org/2000/svg">
<path d="M37.0415 463.696C16.64 463.696 -2.29418 457.014 -17.1636 447.336C-57.8929 420.829 -83.056 362.583 -52.3493 302.544C-27.1166 253.205 17.2672 238.382 129.63 221.352C166.275 215.801 168.803 192.101 172.299 159.304C176.557 119.357 181.861 69.6385 250.838 32.13C322.112 -6.62879 389.769 -3.34212 433.979 6.23919C484.603 17.2103 531.793 42.8533 557.135 73.1651C579.394 99.7915 585.774 128.148 574.633 150.965C558.927 183.135 510.773 199.507 439.042 197.076L437.428 197.014C420.824 196.348 376.727 194.579 368.733 274.582C365.245 309.462 353.442 333.285 333.652 345.391C308.017 361.061 276.737 352.649 260.377 346.242L256.138 344.562C223.105 331.415 199.242 321.908 120.037 419.618C93.8751 451.881 64.1634 463.692 37.0415 463.696ZM376.503 7.41215C337.852 7.41215 296.19 16.2773 254.531 38.9318C189.123 74.5008 184.063 121.978 179.995 160.125C176.421 193.627 173.336 222.56 130.783 229.01C21.3165 245.598 -21.7665 259.732 -45.4623 306.07C-74.0824 362.033 -50.766 416.234 -12.944 440.848C19.0015 461.64 71.4258 467.277 114.013 414.736C196.804 312.601 224.247 323.534 258.995 337.366L263.195 339.03C278.22 344.914 306.824 352.711 329.606 338.782C347.221 328.009 357.793 306.148 361.025 273.808C369.743 186.558 420.925 188.605 437.734 189.279L439.298 189.337C507.776 191.671 553.383 176.829 567.668 147.57C577.408 127.618 571.404 102.308 551.192 78.132C524.063 45.6832 456.792 7.41215 376.503 7.41215Z" fill="#CAF0C1"/>
<path d="M-55.8812 835.632C48.232 735.221 64.6644 716.88 154.05 724.31C275.062 734.368 288.683 606.469 200.884 555.482C110.216 502.828 -39.8411 567.82 -95.5656 685.328C-151.29 802.835 -122.201 899.592 -55.8812 835.632Z" fill="#CAF0C1"/>
</svg>
